<?xml version="1.0" encoding="UTF-8" standalone="no"?>
<!-- Created with Inkscape (http://www.inkscape.org/) -->

<svg
   xmlns:dc="http://purl.org/dc/elements/1.1/"
   xmlns:cc="http://creativecommons.org/ns#"
   xmlns:rdf="http://www.w3.org/1999/02/22-rdf-syntax-ns#"
   xmlns:svg="http://www.w3.org/2000/svg"
   xmlns="http://www.w3.org/2000/svg"
   xmlns:sodipodi="http://sodipodi.sourceforge.net/DTD/sodipodi-0.dtd"
   xmlns:inkscape="http://www.inkscape.org/namespaces/inkscape"
   width="500"
   height="500"
   viewBox="0 0 500.00001 500.00001"
   id="svg2"
   version="1.1"
   inkscape:version="0.91 r13725"
   sodipodi:docname="garbage.svg"
   inkscape:export-filename="D:\Users\NT\Desktop\garbage.png"
   inkscape:export-xdpi="90"
   inkscape:export-ydpi="90">
  <defs
     id="defs4" />
  <sodipodi:namedview
     id="base"
     pagecolor="#ffffff"
     bordercolor="#666666"
     borderopacity="1.0"
     inkscape:pageopacity="0.0"
     inkscape:pageshadow="2"
     inkscape:zoom="1.2277304"
     inkscape:cx="117.03211"
     inkscape:cy="533.43004"
     inkscape:document-units="px"
     inkscape:current-layer="layer1"
     showgrid="false"
     units="px"
     inkscape:window-width="1920"
     inkscape:window-height="1180"
     inkscape:window-x="-8"
     inkscape:window-y="-8"
     inkscape:window-maximized="1"
     showguides="false" />
  <metadata
     id="metadata7">
    <rdf:RDF>
      <cc:Work
         rdf:about="">
        <dc:format>image/svg+xml</dc:format>
        <dc:type
           rdf:resource="http://purl.org/dc/dcmitype/StillImage" />
        <dc:title />
      </cc:Work>
    </rdf:RDF>
  </metadata>
  <g
     inkscape:label="Layer 1"
     inkscape:groupmode="layer"
     id="layer1"
     transform="translate(0,-552.36216)">
    <g
       id="g4157"
       transform="translate(-257.3855,-254.94196)">
      <path
         sodipodi:nodetypes="ccccc"
         inkscape:connector-curvature="0"
         id="path4204"
         d="m 155.76791,617.17912 -4.11401,9.23161 c 0,0 20.98144,6.42199 42.37425,24.08248 l 0.4114,0 c 0,0 -15.63321,-23.68111 -38.67164,-33.31409 z"
         style="fill:#b3b3b3;fill-opacity:1;fill-rule:evenodd;stroke:#000000;stroke-width:2;stroke-linecap:butt;stroke-linejoin:miter;stroke-miterlimit:4;stroke-dasharray:none;stroke-opacity:1" />
      <path
         sodipodi:nodetypes="cccsssssc"
         inkscape:connector-curvature="0"
         id="path4208"
         d="M 205.54737,648.08496 C -10.849248,733.17635 59.088822,969.98726 59.088822,969.98726 l -27.15244,45.75664 c 0,0 24.68403,12.0413 55.95047,0.8028 31.266418,-11.2385 181.164738,90.2588 362.032338,-79.47215 20.16218,-18.92071 31.02412,-12.27824 44.43125,-34.51821 0,0 5.75962,-5.61924 -47.72245,-27.29344 0,0 -13.26782,-63.5551 -53.48204,-138.87556 C 336.5073,630.30422 205.54737,648.08496 205.54737,648.08496 Z"
         style="fill:#b3b3b3;fill-opacity:1;fill-rule:evenodd;stroke:#000000;stroke-width:2;stroke-linecap:butt;stroke-linejoin:miter;stroke-miterlimit:4;stroke-dasharray:none;stroke-opacity:1" />
      <path
         sodipodi:nodetypes="cc"
         inkscape:connector-curvature="0"
         id="path4210"
         d="m 446.41607,874.47191 c 0.8228,13.64672 -1.6456,17.66047 -1.6456,17.66047"
         style="fill:none;fill-rule:evenodd;stroke:#000000;stroke-width:2;stroke-linecap:butt;stroke-linejoin:miter;stroke-miterlimit:4;stroke-dasharray:none;stroke-opacity:1" />
      <path
         sodipodi:nodetypes="ccccc"
         inkscape:connector-curvature="0"
         id="path4221"
         d="m 205.44804,653.55307 c -11.05435,13.33929 -16.87243,27.81384 -16.87243,27.81384 0,0 -0.95837,3.72594 9.59983,10.50113 l 9.30892,0.28382 c 0,0 6.39991,-19.58319 2.90906,-36.04447"
         style="fill:none;fill-rule:evenodd;stroke:#000000;stroke-width:2;stroke-linecap:butt;stroke-linejoin:miter;stroke-miterlimit:4;stroke-dasharray:none;stroke-opacity:1" />
      <path
         sodipodi:nodetypes="ccc"
         inkscape:connector-curvature="0"
         id="path4223"
         d="m 210.10252,656.39121 c -13.09069,13.90693 -9.59985,21.85374 -9.59985,21.85374 0,0 9.30893,-1.41908 9.59985,-21.85374 z"
         style="fill:none;fill-rule:evenodd;stroke:#000000;stroke-width:2;stroke-linecap:butt;stroke-linejoin:miter;stroke-miterlimit:4;stroke-dasharray:none;stroke-opacity:1" />
      <path
         sodipodi:nodetypes="ccscc"
         inkscape:connector-curvature="0"
         id="path4227"
         d="m 209.8116,656.67504 c 5.52718,15.32598 -7.5635,55.34385 -7.5635,55.34385 0,0 2.66042,6.82765 11.34525,5.10864 0,0 -0.0362,-19.36758 0,-60.16867 z"
         style="fill:none;fill-rule:evenodd;stroke:#000000;stroke-width:2;stroke-linecap:butt;stroke-linejoin:miter;stroke-miterlimit:4;stroke-dasharray:none;stroke-opacity:1" />
      <path
         sodipodi:nodetypes="ccc"
         inkscape:connector-curvature="0"
         id="path3402"
         d="m 68.262106,1012.6823 c -3.854725,-36.42895 -2.891053,-37.83006 -2.891053,-37.83006 19.757733,27.06726 17.193183,23.02258 23.128352,30.82446"
         style="fill:none;fill-rule:evenodd;stroke:#000000;stroke-width:2;stroke-linecap:butt;stroke-linejoin:miter;stroke-miterlimit:4;stroke-dasharray:none;stroke-opacity:1" />
      <path
         inkscape:connector-curvature="0"
         id="path3404"
         d="m 81.176125,959.29955 c 8.571636,19.51308 25.714925,25.08825 25.714925,25.08825"
         style="fill:none;fill-rule:evenodd;stroke:#000000;stroke-width:2;stroke-linecap:butt;stroke-linejoin:miter;stroke-miterlimit:4;stroke-dasharray:none;stroke-opacity:1" />
      <path
         sodipodi:nodetypes="csc"
         inkscape:connector-curvature="0"
         id="path3408"
         d="m 127.85123,984.97544 c 6.02452,4.9516 14.22903,13.19498 24.38515,13.99879 l 83.50557,6.60907"
         style="fill:none;fill-rule:evenodd;stroke:#000000;stroke-width:2;stroke-linecap:butt;stroke-linejoin:miter;stroke-miterlimit:4;stroke-dasharray:none;stroke-opacity:1;image-rendering:auto" />
      <path
         sodipodi:nodetypes="ccc"
         inkscape:connector-curvature="0"
         id="path3410"
         d="m 429.30406,928.16866 7.14302,-37.63237 c 0,0 0,0 -20.00049,33.45098"
         style="fill:none;fill-rule:evenodd;stroke:#000000;stroke-width:2;stroke-linecap:butt;stroke-linejoin:miter;stroke-miterlimit:4;stroke-dasharray:none;stroke-opacity:1" />
      <path
         inkscape:transform-center-y="44.444709"
         inkscape:transform-center-x="0.78773675"
         sodipodi:nodetypes="cc"
         inkscape:connector-curvature="0"
         id="path3412"
         d="m 451.73981,891.60076 c -5.71443,20.90688 -7.14305,22.30066 -7.14305,22.30066"
         style="fill:none;fill-rule:evenodd;stroke:#000000;stroke-width:2;stroke-linecap:butt;stroke-linejoin:miter;stroke-miterlimit:4;stroke-dasharray:none;stroke-opacity:1" />
      <path
         sodipodi:nodetypes="cc"
         inkscape:connector-curvature="0"
         id="path3414"
         d="m 225.97423,710.86934 c 26.28904,53.90356 22.6292,92.40507 22.6292,92.40507"
         style="fill:none;fill-rule:evenodd;stroke:#000000;stroke-width:2;stroke-linecap:butt;stroke-linejoin:miter;stroke-miterlimit:4;stroke-dasharray:none;stroke-opacity:1" />
      <path
         sodipodi:nodetypes="cc"
         inkscape:connector-curvature="0"
         id="path3418"
         d="m 199.92566,651.98835 c -47.43441,11.06175 -52.01319,75.43267 -52.01319,75.43267"
         style="fill:none;fill-rule:evenodd;stroke:#000000;stroke-width:2;stroke-linecap:butt;stroke-linejoin:miter;stroke-miterlimit:4;stroke-dasharray:none;stroke-opacity:1" />
      <path
         sodipodi:nodetypes="cc"
         inkscape:connector-curvature="0"
         id="path3424"
         d="m 213.79361,650.11002 c 21.01407,28.55107 16.44179,22.87142 16.44179,22.87142"
         style="fill:none;fill-rule:evenodd;stroke:#000000;stroke-width:2;stroke-linecap:butt;stroke-linejoin:miter;stroke-miterlimit:4;stroke-dasharray:none;stroke-opacity:1" />
      <path
         inkscape:connector-curvature="0"
         id="path4161"
         d="m 214.02409,650.02121 c 20.47728,8.33685 29.25326,19.14389 29.25326,19.14389"
         style="fill:none;fill-rule:evenodd;stroke:#000000;stroke-width:2;stroke-linecap:butt;stroke-linejoin:miter;stroke-miterlimit:4;stroke-dasharray:none;stroke-opacity:1" />
      <path
         sodipodi:nodetypes="cscscsc"
         inkscape:connector-curvature="0"
         id="path4191"
         d="m 190.98271,653.22217 c 0,0 -11.7249,-18.26253 -29.41513,-28.89895 -19.66065,-11.82118 -22.8327,-12.44261 -22.8327,-12.44261 0,0 5.55389,-14.85086 13.9876,-21.07218 14.01696,-10.33994 11.72491,-6.2213 11.72491,-6.2213 0,0 4.5254,6.42201 6.5824,9.63301 2.05701,3.21099 19.95293,57.9986 19.95293,57.9986"
         style="fill:#b3b3b3;fill-opacity:1;fill-rule:evenodd;stroke:#000000;stroke-width:2;stroke-linecap:butt;stroke-linejoin:miter;stroke-miterlimit:4;stroke-dasharray:none;stroke-opacity:1" />
      <path
         sodipodi:nodetypes="cccscccccsccc"
         inkscape:connector-curvature="0"
         id="path4198"
         d="m 160.53909,594.01944 32.08923,58.1993 21.80423,-3.21101 c 0.0143,-0.083 38.10925,-50.05311 50.60224,-59.80478 8.87758,-6.92956 -13.98762,-18.06184 -13.98762,-18.06184 0,0 -14.13248,-15.86655 -17.69021,-7.62614 l -6.5824,8.02751 c 0,0 -19.10397,-11.30782 -23.86124,-3.21102 l -2.46837,5.21789 c 0.22429,1.96944 -9.84519,8.07805 -20.15865,5.21786 -5.01158,-1.38985 -9.78708,3.6405 -9.87361,3.61237 0,0 -0.41139,13.64674 -9.46216,11.23849 l 2.87976,-9.63298"
         style="fill:#b3b3b3;fill-opacity:1;fill-rule:evenodd;stroke:#000000;stroke-width:2;stroke-linecap:butt;stroke-linejoin:miter;stroke-miterlimit:4;stroke-dasharray:none;stroke-opacity:1" />
      <path
         sodipodi:nodetypes="ccccc"
         inkscape:connector-curvature="0"
         id="path4163"
         d="m 189.74851,650.21186 c 13.98762,2.20757 28.79802,-2.80962 28.79802,-2.80962 l 0,2.80962 c 0,0 -7.61091,6.19926 -27.97522,2.78759 0,0 0.70164,1.78543 -0.8228,-2.78759 z"
         style="fill:#b3b3b3;fill-opacity:1;fill-rule:evenodd;stroke:#000000;stroke-width:2;stroke-linecap:butt;stroke-linejoin:miter;stroke-miterlimit:4;stroke-dasharray:none;stroke-opacity:1" />
      <path
         sodipodi:nodetypes="cccccc"
         inkscape:connector-curvature="0"
         id="path4169"
         d="m 202.29621,654.2256 9.46221,-1.20413 8.63942,-3.21098 0.41139,3.61236 c 0,0 -6.87349,6.19856 -18.10161,3.81305 z"
         style="fill:#b3b3b3;fill-opacity:1;fill-rule:evenodd;stroke:#000000;stroke-width:2;stroke-linecap:butt;stroke-linejoin:miter;stroke-miterlimit:4;stroke-dasharray:none;stroke-opacity:1" />
      <path
         sodipodi:nodetypes="cc"
         inkscape:connector-curvature="0"
         id="path4179"
         d="m 194.06822,653.02147 -15.83894,25.88865"
         style="fill:none;fill-rule:evenodd;stroke:#000000;stroke-width:2;stroke-linecap:butt;stroke-linejoin:miter;stroke-miterlimit:4;stroke-dasharray:none;stroke-opacity:1" />
      <path
         sodipodi:nodetypes="cccc"
         inkscape:connector-curvature="0"
         id="path4181"
         d="m 253.63417,600.69754 2.64512,7.7944 c 0,0 -46.91401,43.7165 -40.22754,38.75523 z"
         style="fill:#b3b3b3;fill-opacity:1;fill-rule:evenodd;stroke:#000000;stroke-width:2;stroke-linecap:butt;stroke-linejoin:miter;stroke-miterlimit:4;stroke-dasharray:none;stroke-opacity:1" />
      <path
         sodipodi:nodetypes="ccc"
         inkscape:connector-curvature="0"
         id="path3440"
         d="m 200.77436,573.83812 c 10.0047,3.53022 8.3591,7.44726 8.3591,7.44726 l 1.181,67.79489"
         style="fill:none;fill-rule:evenodd;stroke:#000000;stroke-width:2;stroke-linecap:butt;stroke-linejoin:miter;stroke-miterlimit:4;stroke-dasharray:none;stroke-opacity:1" />
      <path
         sodipodi:nodetypes="cc"
         inkscape:connector-curvature="0"
         id="path3442"
         d="m 190.56083,607.69347 c 9.28151,11.74974 11.95511,42.80871 11.95511,42.80871"
         style="fill:none;fill-rule:evenodd;stroke:#000000;stroke-width:2;stroke-linecap:butt;stroke-linejoin:miter;stroke-miterlimit:4;stroke-dasharray:none;stroke-opacity:1" />
      <path
         sodipodi:nodetypes="cc"
         inkscape:connector-curvature="0"
         id="path3444"
         d="m 220.98517,618.91462 -8.16022,29.8827"
         style="fill:none;fill-rule:evenodd;stroke:#000000;stroke-width:2;stroke-linecap:butt;stroke-linejoin:miter;stroke-miterlimit:4;stroke-dasharray:none;stroke-opacity:1" />
    </g>
  </g>
</svg>
